# xmcd
#
# Track frame offsets: 
#        150
#        35053
#        105550
#        132618
#        180261
#        206717
#        244443
#
# Disc length: 3771 seconds
#
# Revision: 0
# Processed by: cddbd v1.5.2PL0 Copyright (c) Steve Scherf et al.
# Submitted via: ExactAudioCopyFreeDBPlugin 1.0
#
DISCID=650eb907
DTITLE=Coco Montoya - Songs From the Road
DYEAR=2014
DGENRE=Blues
TTITLE0=Fannie Mae
TTITLE1=Good Days, Bad Days
TTITLE2=I Need Your Love in My Life
TTITLE3=I Want It All Back
TTITLE4=I Won't Beg
TTITLE5=My Side of the Fence
TTITLE6=You'd Think I'd Know Better by Now
EXTD=
EXTT0=
EXTT1=
EXTT2=
EXTT3=
EXTT4=
EXTT5=
EXTT6=
PLAYORDER=
